<svg height="215pt" preserveAspectRatio="xMidYMid meet" viewBox="0 0 1393 215" width="1393pt" xmlns="http://www.w3.org/2000/svg"><g transform="matrix(.1 0 0 -.1 0 215)"><path d="m3111 2100c-12-17-27-28-33-24-7 4-8 2-4-5 5-7-10-35-35-69-24-31-45-59-47-62s-98-6-214-7c-115-1-213-4-216-7s-26-7-51-7c-94-3-104-9-117-65-6-30-8-68-4-90 9-47 11-40 16 50 2 38 5 70 7 72 10 10 209 26 381 30 110 3 203 7 206 9 4 3 29 36 55 75s50 69 52 66c3-2-25-60-60-128-80-152-180-346-305-588-121-237-112-224-169-245-26-10-66-26-88-35-22-10-62-27-89-39s-51-19-54-17c-2 3 11 24 30 48s108 144 198 268 168 230 174 235c18 17 38 57 31 63-3 4-91 6-196 6h-189l3 43c2 24-1 43-5 43-5 0-8-23-6-51l3-50h183c100 0 182-2 182-5 0-7-53-82-154-219-266-360-276-374-276-397 0-17 4-19 28-14 15 3-9-12-52-34-93-46-105-55-89-71 9-9 23-7 56 9 25 12 58 24 73 28 16 4 36 12 44 18 14 11 44 25 155 70 22 9 50 18 63 19 12 0 22 4 22 8 0 15 223 74 246 65 8-3 14-2 14 2 0 27 411 58 704 53l58-1-88-70c-49-38-102-81-117-95s-33-22-40-19c-7 4-9 4-5-1 10-11-82-96-95-88-5 3-7 1-4-4 6-10-20-32-68-59-11-6-19-16-18-22 5-25-128-31-762-36-363-3-727-10-809-16-107-7-152-7-162 1-15 12-38 3-29-12 4-5-15-9-42-9-56-1-290-31-448-59-77-13-114-16-123-8-9 7-16 7-24-1-7-7-8-12-2-13 8 0-60-22-168-54-29-8-50-9-54-4-3 5-10 7-15 3-5-3-7-10-4-15 4-5 1-9-5-9s-39-13-73-29-78-36-97-45c-126-57-280-164-319-222-31-47-78-222-67-250s28-1 66 99c48 128 56 134 195 142 163 10 449 3 467-13 8-6 23-38 33-69 11-32 25-65 33-73 12-13 16-12 34 13l21 29 126-2c69-2 271 0 449 4 247 5 327 4 338-5s18-9 26-1c17 17 24 15 52-15 29-31 32-29 67 37 36 70 89 131 125 146 18 8 39 22 46 32 27 38 158 72 271 72 61-1 115-10 212-36 172-46 170-46 170-9-1 19-6 30-15 30-8 1-41 13-74 28-32 15-60 27-63 27-2 0-14 9-26 21l-22 20 490-7c270-3 493-8 496-10 4-2 202-6 440-10 239-3 441-8 449-11s137-6 285-7c149-1 338-3 420-4l150-2-27-23c-33-27-99-127-92-139 3-4 10-8 16-8s9 3 5 6c-7 8 45 93 75 121 13 12 36 28 52 37l29 15-34 5c-31 4-399 13-1356 33-178 3-323 9-323 12s-307 7-683 8c-375 1-677 0-672-2 6-2 52-11 104-20 51-8 117-22 145-31 60-18 200-83 194-90-3-2-30 5-61 15-252 87-498 60-639-71-41-38-118-145-118-165 0-19-17-16-29 5-9 16-41 17-498 13-447-3-491-5-519-21l-31-18-19 60c-28 95-23 93-329 92-175 0-274-4-302-12-47-14-60-32-103-150-12-34-24-61-26-59-8 8 37 161 57 193 11 18 35 44 52 56 18 12 34 25 37 28s29 20 58 38c54 32 78 41 67 22-3-6 0-10 9-10 8 0 17-6 19-12 4-8 6-9 6-2 1 6-6 17-14 24-20 16-19 34 1 26 8-3 13-2 10 2-5 8 102 66 179 98 380 155 944 223 1875 225 256 1 544 4 640 8l175 6 165 140c91 77 170 144 177 150 6 5 44 35 83 65l72 55-169 3c-279 5-576-23-770-74-53-13-168-54-257-90-211-86-206-84-206-78 0 8 185 92 307 140 218 85 374 113 773 139 321 22 593 22 730 1 423-65 832-241 1425-611 72-45 151-74 265-97 73-14 130-58 130-99-1-21-2-22-11-6-20 35-62 46-207 52-78 4-142 3-142-2s15-17 34-27c38-20 126-106 109-106-6 0-13 3-15 8-6 15-86 61-124 71-66 18-159 14-217-11-29-12-54-25-57-28-6-7-56-41-84-57-19-11-19-13-2-13 10 0 35 12 55 28 45 34 97 59 146 68 26 4 36 3 31-4-7-11 19-10 30 1 4 4 21 7 38 7 28 0 29-1 10-14-17-13-18-15-2-21 20-8 41 2 33 16-10 15 19 10 45-8 13-9 32-18 42-18 10-1 29-11 41-23 23-22 67-30 67-13 0 16-52 72-95 104l-40 30 114-6c120-6 135-13 125-53-7-28 18-49 44-35 13 7 22 7 30-1 9-9 15-9 23-1 17 17-10 108-40 136-17 16-62 33-131 51-120 31-190 63-334 150-55 34-122 73-149 86-26 13-55 31-65 39-10 9-24 17-31 19-7 1-62 29-121 62-59 32-134 70-166 85-115 52-169 81-172 93-3 16 4 15 67-8 90-32 93-16 14 89-105 140-325 325-528 443-33 19-221 112-298 146-84 39-82 40-202-143-43-66-86-127-95-135-41-36-28-71 39-108 13-8 38-22 55-32 41-23 123-40 190-40 97 0 360-53 496-100 158-55 189-68 183-74-4-4 0-4 9-1 18 7 58-10 58-24 0-10-70 4-98 18-50 27-99 45-114 42-10-1-18 3-18 9s-5 8-10 5c-6-4-50 5-98 19-234 68-413 83-802 67-429-17-599-35-778-82-41-11-86-18-100-17-17 2-26-1-25-9 4-18-16-16-23 2-3 8 7 36 23 62 15 27 55 101 88 166 33 64 85 166 116 225 30 59 102 197 158 307 57 110 107 205 112 211 6 7 4 16-4 22-11 9-19 5-36-18zm846-387c187-82 338-162 463-246 138-93 332-276 408-385l23-32-25 10c-15 5-39 16-56 25-59 30-278 107-400 140-155 42-265 61-400 69-96 6-112 10-192 49-86 42-99 56-75 82 6 7 56 79 110 159 55 80 100 146 103 146 2 0 20-7 41-17zm-1347-622c-8-5-26-11-40-15-21-5-20-3 5 9 32 15 60 20 35 6zm-90-35c0-2-7-7-16-10-8-3-12-2-9 4 6 10 25 14 25 6zm-80-36c-20-13-33-13-25 0 3 6 14 10 23 10 15 0 15-2 2-10z"/><path d="m3813 1518c-28-31-43-62-43-90 0-17-3-19-9-9-6 9-11 10-15 2-8-13 8-29 49-52 17-8 39-20 50-26s75-16 142-22c228-20 483-83 686-168 33-13 64-22 70-20 13 5-135 155-198 202-22 17-42 33-45 36-10 13-182 120-175 110 4-7-4-11-19-11-29 0-35 16-8 23 16 4 16 4 0 11-11 5-24 2-35-10-12-12-14-19-6-21 7-3 9-11 6-19-3-7-8-12-12-10-10 7-24-5-39-33-12-20-12-25 0-33 34-23-48 8-109 40-38 20-108 54-158 75-49 21-95 40-100 43-6 2-20-6-32-18z"/><path d="m6524 2036c-137-31-241-113-301-234-36-71-38-82-38-166 1-121 26-185 107-272 44-47 81-74 136-102l76-37 146 1c107 1 164 6 220 20l75 20-3 119-4 120 31 17c17 9 31 24 31 33 0 13-21 15-151 15-150 0-150 0-147-22 2-17 13-25 41-31l37-9v-83-83l-37-24c-51-31-141-31-199-1-150 79-229 332-155 499 45 101 122 153 227 154 113 0 177-37 239-142 14-23 29-34 49-36 27-3 28-2 23 30-3 18-9 60-13 93-3 33-10 68-15 77-21 39-267 68-375 44z"/><path d="m11458 2034c-131-31-228-106-283-217-76-155-50-336 66-462 84-91 188-135 320-135 203 0 374 118 429 298 96 311-198 597-532 516zm224-99c94-66 143-182 143-340 0-120-23-182-89-243-137-126-340-42-403 167-11 36-17 91-18 156 0 84 4 108 24 153 45 99 118 144 228 139 61-2 78-7 115-32z"/><path d="m12703 2032c-185-66-240-250-110-369 23-22 86-63 139-91 141-77 178-122 157-195-19-67-72-95-155-82-60 9-107 52-150 137-31 61-37 68-64 68-26 0-30-3-25-22 2-13 11-65 19-117s19-98 24-103c15-15 145-38 218-38 39 0 91 7 117 16 56 19 131 83 157 135 23 45 26 125 6 172-21 50-94 110-202 166-122 62-154 93-161 155-5 40-2 48 25 76 26 26 38 30 83 30 88 0 122-33 155-147 2-7 17-13 34-13h31l-3 98-3 97-55 18c-83 28-175 31-237 9z"/><path d="m7092 2009c2-13 14-29 28-36 34-16 37-56 37-368 0-287-3-307-37-315-18-4-25-13-25-30v-25l138-3 137-3v26c0 18-7 28-25 35-32 12-36 33-33 170l3 115 38 3c21 2 45-2 54-10 21-17 140-199 178-273l32-60h119 119v25c0 20-7 26-38 33-35 9-46 21-149 175l-111 166 24 15c103 68 143 165 105 254-17 42-75 93-123 108-23 7-125 14-256 16l-219 5zm383-78c83-47 73-205-16-253-24-13-50-18-89-16l-55 3-3 138c-2 134-2 138 19 146 32 11 109 2 144-18z"/><path d="m7912 2008c2-12 14-28 28-35 34-16 37-56 37-368 0-287-3-307-37-315-18-4-25-13-25-30v-25l129-3c71-1 134 2 139 7 12 12-1 51-18 51-28 0-35 40-35 184v146h200 200v-146c0-144-7-184-35-184-17 0-30-39-18-51 5-5 68-8 139-7l129 3v25c0 17-6 26-20 28-11 2-24 8-29 12-7 7-10 299-6 617 0 36 4 44 28 55 15 7 28 23 30 36 3 22 3 22-138 22s-141 0-138-22c2-13 13-27 26-33 30-13 33-30 30-165l-3-115h-195-195l-3 115c-3 135 0 152 30 165 13 6 24 20 26 33 3 22 3 22-138 22-140 0-141 0-138-22z"/><path d="m8832 2008c2-12 14-28 28-35 33-16 37-56 37-353-1-314-1-318-41-328-24-6-32-14-34-35l-3-27h306c235 0 307 3 310 13 12 32 32 203 25 210-18 19-51-7-81-63-20-37-41-62-58-70-16-6-74-10-146-8l-120 3-3 153-3 153 88-3c85-3 88-4 101-30 9-19 21-28 38-28 24 0 24 1 24 94 0 52-4 97-9 100-16 10-42-6-51-30-10-26-62-38-140-32l-45 3-3 119c-1 66 1 123 6 128s49 10 98 10c155 0 143 3 164-46 19-44 51-72 70-61 11 7 13 71 4 139l-7 46h-279-279z"/><path d="m9522 2008c2-13 15-28 29-35 53-26 54-27 58-305 2-142 0-283-4-313-6-51-9-55-38-63-25-6-32-14-32-33 0-24 1-24 114-27 63-1 118 1 124 7 15 15-10 48-41 54-25 5-30 12-35 44-9 54-9 493 1 492 7 0 275-340 405-513 38-50 73-92 78-94s25 2 44 8l35 12v348c0 192 3 355 6 364s14 16 23 16c22 0 41 19 41 42 0 16-11 18-120 18-89 0-120-3-120-12 0-23 16-39 46-47l29-7 3-234c1-129 0-232-2-229-49 50-352 447-369 482l-22 47h-128c-127 0-128 0-125-22z"/><path d="m10402 2008c2-12 14-28 28-35 20-10 26-22 31-65 7-59 8-531 1-576-3-21-13-33-35-43-21-9-32-21-32-34 0-19 8-20 294-23 162-1 298 1 302 5 11 11 34 201 26 209-18 18-54-9-80-60-18-34-38-58-56-65-16-7-73-11-141-9l-115 3-3 295c-3 328-1 360 28 360 18 0 40 27 40 49 0 7-49 11-146 11-145 0-145 0-142-22z"/><path d="m12116 2021c-10-15 5-40 27-47 12-4 25-12 29-18 12-18 10-624-2-647-6-10-17-19-25-19-19 0-40-39-28-51 5-5 70-8 144-7l134 3v25c0 17-7 26-25 30l-25 6-3 331-2 332 27 13c16 7 29 23 31 36 3 22 3 22-137 22-77 0-142-4-145-9z"/><path d="m13415 2013c4-10 10-27 12-38s-45-148-105-305c-153-397-139-367-173-379-22-7-29-16-29-35v-26h105 105v25c0 18-7 28-26 35-29 11-29 11 13 123l25 67h142 141l28-77c31-88 34-113 12-113-17 0-39-36-30-50 4-6 65-10 146-10h139v25c0 17-7 28-23 34-13 5-28 15-34 22-13 16-267 650-277 692-6 27-7 27-92 27-78 0-85-2-79-17zm120-300c26-71 50-134 53-140 3-10-22-13-106-13h-110l52 140c28 77 54 140 57 140s27-57 54-127z"/><path d="m3112 1933c-12-2-30-17-40-31-9-15-19-29-22-32s-6-13-8-23c-4-22-49-105-70-129-8-10-13-18-10-18 4 0 0-21-8-47-17-57-9-70 54-79 108-15 397-89 437-112 11-6 46-18 78-28 55-16 58-16 78 2 18 17 73 92 104 142 6 9 15 21 21 27 13 13 104 151 104 159 0 10-84 59-105 61-26 2-106 23-125 33-8 5-34 9-57 11-23 1-65 9-95 17-29 9-78 18-108 20-30 3-86 12-125 20-38 7-72 13-75 13-3-1-15-4-28-6zm108-38c114-11 292-44 410-76 63-17 125-33 138-36 12-3 22-12 22-19 0-13-164-267-197-305-12-15-24-13-126 23-146 51-226 73-370 102-65 14-121 27-124 30-4 3 8 36 25 73 17 38 47 103 67 146 33 74 37 78 63 73 15-3 56-8 92-11z"/><path d="m2220 1874c-190-41-229-51-285-74-11-4-54-18-95-31-95-28-106-37-91-79 6-18 14-61 17-96 7-70 27-94 62-75 37 20 302 70 373 70 68 1 87 21 100 106 6 39 14 73 18 77s4 31 1 60c-6 61-8 62-100 42zm80-22c0-22-19-178-25-208-4-18-14-23-62-28-82-10-255-43-340-65l-72-19-11 57c-6 31-15 70-20 87-4 17-5 36-1 41 10 17 147 62 326 109 194 50 205 51 205 26z"/><path d="m2148 1692c-75-18-89-29-30-25l37 2-45-13-45-14 61-1c34-1 76 2 93 5 26 6 31 11 31 35 0 34-5 34-102 11zm49-28c-3-3-12-4-19-1-8 3-5 6 6 6 11 1 17-2 13-5z"/><path d="m2023 1623c9-2 23-2 30 0 6 3-1 5-18 5-16 0-22-2-12-5z"/><path d="m2640 1880c-68-5-71-6-30-11l45-6-42-1c-43-2-43-2-43-41 0-33-4-40-22-44-13-2-4-4 20-4 78-1 55-11-42-18-101-8-96-5-110-67l-6-27 187-3c104-2 193-2 198 0 6 1 24 25 40 53 17 28 35 56 40 62 21 25 65 97 65 107 0 12-139 11-300 0z"/><path d="m1676 1703c-3-4-15-8-25-10-23-3-198-94-249-128-20-14-41-25-46-25-13 0-176-123-176-132 0-16 81-118 93-118 13 0 31 9 108 52 65 36 204 98 269 118 62 20 58 6 47 164-6 81-9 91-21 79zm1-93c23-111 23-111-65-143-42-16-137-58-210-94s-134-64-135-62-17 23-35 47c-18 23-30 47-27 52 24 39 411 263 445 257 9-1 19-22 27-57z"/><path d="m1022 1278c-97-95-184-199-239-286-22-34-42-60-45-57-2 3-5-1-5-9s-16-47-35-88c-20-40-42-92-49-116-7-23-18-47-25-53s-10-18-7-27 7-23 9-31c7-20 69 48 65 72-1 9 24 56 56 105 32 48 60 92 62 97 2 6 64 70 138 143 87 88 139 132 148 128 8-3 14 0 12 7-1 7 5 11 13 9s12 0 8 3c-4 4 11 21 32 36 22 16 40 32 40 37 0 11-74 105-85 109-5 1-47-34-93-79zm130 10 26-41-60-44c-190-140-343-313-441-498-50-94-25-7 38 129 36 78 116 202 194 298 65 81 186 198 205 198 6 0 23-19 38-42z"/><path d="m3857 1149c-52-12-112-44-182-98-66-50-391-368-384-376 3-2 21-5 40-6 18-2 40-7 48-13 11-8 13-8 7 2-6 9 167 12 851 12 826 0 860 1 901 20 23 10 42 26 42 34 0 9-19 29-42 46-24 16-49 34-55 40-7 6-13 8-13 4 0-3-6-2-12 4-7 5-73 40-145 77-73 37-133 71-133 76 0 6-5 7-10 4-6-4-24 1-42 9-17 9-37 16-45 16-7 0-13 8-14 18 0 9-3 12-5 6-3-7-29-3-77 14-40 13-88 28-107 33s-82 20-140 34c-201 48-392 65-483 44zm189-10c159-16 631-129 619-149-2-4 1-7 8-7 23 0 296-131 349-167 20-13 44-27 54-30 32-10 78-52 70-64-4-6-30-18-58-27-45-13-169-15-905-15-810 0-853 1-844 18 5 9 52 61 105 116 61 64 99 95 107 91 7-5 10-4 6 2-7 11 77 94 148 146 57 41 133 78 180 87 22 4 43 8 46 9 3 0 55-4 115-10z"/><path d="m3610 828c-30-5-60-9-67-10s-10-5-7-10c3-4-2-11-11-14-9-4-24-23-35-44l-19-37 23-11c17-7 25-7 32 4 13 19 238 38 263 22 10-6 25-9 34-5 22 8 7 66-23 88-31 22-118 30-190 17zm186-32c31-43 20-51-68-51-46 0-116-3-156-8-78-8-77-9-44 41 18 27 85 42 170 40 69-3 86-6 98-22z"/><path d="m7760 814c-101-27-185-94-232-184-30-60-37-169-13-239 18-56 88-140 146-176 94-60 223-69 361-25 74 23 71 17 86 128l9 63-26-3c-20-2-31-14-48-49-70-148-264-141-352 12-106 186-26 421 144 423 98 1 158-31 196-105 15-30 25-39 45-39 22 0 25 4 21 23-3 12-9 50-13 84-6 62-7 63-44 73-122 33-196 37-280 14z"/><path d="m9715 822c-3-3-5-41-5-84 0-72 2-78 20-78 15 0 26 13 40 45l19 45h81 80v-259-259l-31-11c-21-7-30-16-27-28 3-16 18-18 126-21 116-2 122-2 122 17 0 12-11 25-27 33l-28 13-3 258-2 257h78c80 0 102-9 102-41 0-21 26-49 46-49 12 0 14 15 12 83-2 67-6 81-18 78-33-9-468-12-522-3-32 5-60 7-63 4z"/><path d="m8415 793c13-31 9-46-85-289-107-279-104-272-136-285-16-6-24-15-22-27 3-15 15-17 88-17 74 0 85 2 88 18 3 12-4 20-17 24-26 7-26 14 0 91l21 63 115-3 115-3 24-65 25-64-22-17c-14-11-20-22-16-33 6-14 21-16 114-14 93 3 108 5 111 20 2 12-5 21-21 27-27 11-34 24-166 362-45 113-81 211-81 217 0 8-23 12-71 12-64 0-70-2-64-17zm94-238c23-58 41-110 41-115 0-6-38-10-86-10-65 0-85 3-81 13 2 6 21 58 42 115 21 56 39 102 41 102 1 0 21-47 43-105z"/><path d="m8860 795c0-9 11-21 25-27l25-11v-264-263l-26-10c-16-7-24-16-22-28 3-15 17-17 113-17s110 2 113 17c2 12-6 21-22 28-26 9-26 10-26 120v111l38-3c34-3 41-9 94-88 32-47 70-109 84-138l27-53 96 3c88 3 96 5 96 23 0 13-10 22-32 28-27 8-48 33-119 138l-87 128 46 41c104 92 81 227-46 265-74 22-377 22-377 0zm321-72c45-45 38-146-13-184-24-19-102-34-118-24-6 4-10 55-10 122v115l60-4c44-3 67-10 81-25z"/><path d="m10390 796c0-7 11-21 25-30l25-17-2-257c-3-254-3-257-25-267-21-9-36-38-25-49 9-10 220-7 226 3 10 15-4 39-25 44-17 5-19 15-19 116v111h35c32 0 38-6 96-91 33-50 72-113 85-140l25-49h94c52 0 96 4 99 9 11 17-5 39-34 45-24 4-45 29-118 138l-89 133 39 28c83 59 98 166 33 231-46 46-97 56-284 56-131 0-161-3-161-14zm300-61c38-20 50-43 50-100 0-40-5-52-33-80-32-32-103-55-127-40-6 4-10 52-10 121v114h45c26 0 59-7 75-15z"/><path d="m11258 798c7-7 12-20 12-30 0-19-169-467-194-517-9-16-25-31-36-34-14-4-21-12-18-24 3-15 15-18 77-21 41-2 80-1 87 2 18 7 6 43-17 49-18 5-18 8 5 73l23 69 114 3 115 3 22-63c26-73 27-88 8-88-17 0-30-30-18-42 5-5 58-7 118-6 92 3 109 6 112 20 2 10-8 21-25 30-25 11-41 45-135 283-58 149-109 278-112 288-4 14-18 17-78 17-56 0-69-3-60-12zm138-350c5-16-3-18-80-18-47 0-86 4-86 8 0 7 42 125 70 197 12 30 12 29 51-70 21-55 42-108 45-117z"/><path d="m11710 791c0-12 6-21 15-21 30 0 35-39 35-275 0-243-5-275-39-275-20 0-35-25-25-41 7-12 201-11 323 1 72 7 108 16 157 40 217 107 271 350 109 498-84 77-114 85-362 90-211 4-213 3-213-17zm407-69c79-41 115-114 114-234 0-92-35-167-99-212-37-27-52-30-133-34-50-3-95 0-100 5-7 7-14 361-9 492 0 23 175 10 227-17z"/><path d="m12467 790c3-10 13-22 23-25s21-16 24-28c8-30 6-456-3-487-4-15-16-27-31-30-16-4-25-13-25-25 0-19 9-20 239-23 148-1 243 1 249 7s16 46 22 91l12 80h-23c-17 0-29-11-43-38-35-68-46-73-162-70l-104 3-3 118-3 117h70c62 0 70-2 85-25 9-14 23-25 31-25 12 0 15 16 15 80 0 75-1 80-21 80-12 0-23-8-26-20-6-22-47-33-108-28l-40 3v100 100l89 3c72 2 92 0 107-14 11-9 19-23 19-30 0-17 28-44 46-44 11 0 14 17 14 75v75h-229c-223 0-229-1-224-20z"/><path d="m3708 503c12-2 32-2 45 0 12 2 2 4-23 4s-35-2-22-4z"/><path d="m1875 494c-22-2-110-8-195-14s-198-18-250-26c-52-9-108-17-125-18-16-2-37-6-45-9-8-4-64-18-125-31-112-24-260-66-305-85-20-9-11-10 45-5 70 5 70 5 125-36l55-42 75 8c87 10 121 10 291-1 92-6 140-4 179 5 48 12 219 84 365 155 28 13 67 31 88 39 95 38-15 75-178 60zm135-25c0-5 5-7 10-4 14 9 12-11-2-23-7-5-24-13-37-17-14-4-93-40-177-81-84-40-170-77-191-83-22-6-148-9-307-8l-268 3-36 39-35 39 134 32c195 48 550 97 769 107 36 2 82 4 103 5 20 1 37-3 37-9z"/><path d="m4338 493c6-2 18-2 25 0 6 3 1 5-13 5s-19-2-12-5z"/><path d="m2278 453c12-2 30-2 40 0 9 3-1 5-23 4-22 0-30-2-17-4z"/><path d="m2395 450c-18-8-17-9 7-9 15-1 30 4 33 9 7 12-12 12-40 0z"/><path d="m2871 421c-51-13-38-28 109-124 83-54 120-71 131-60 9 9 6 21-9 47-14 23-17 36-9 38 7 2 253 5 547 7 826 4 1318 15 1331 28 8 8 8 13-1 18-7 4-148 11-314 15-165 5-402 11-526 14s-391 8-595 12c-203 3-431 7-505 8-74 2-146 0-159-3zm1144-41c330-6 609-12 620-13 11-2-339-6-778-10-439-5-805-11-812-13-11-5-10-10 6-27 24-26 45-61 32-56-14 7-187 121-198 132-6 6 85 7 260 3 149-3 540-11 870-16z"/><path d="m748 413c12-2 32-2 45 0 12 2 2 4-23 4s-35-2-22-4z"/><path d="m1128 413c6-2 18-2 25 0 6 3 1 5-13 5s-19-2-12-5z"/><path d="m1018 403c12-2 32-2 45 0 12 2 2 4-23 4s-35-2-22-4z"/><path d="m348 393c12-2 32-2 45 0 12 2 2 4-23 4s-35-2-22-4z"/><path d="m898 393c7-3 16-2 19 1 4 3-2 6-13 5-11 0-14-3-6-6z"/></g></svg>